{"glyphs":{":":{"x_min":0,"x_max":326,"ha":326,"o":"m 101 416 q 101 441 119 459 q 137 477 163 477 q 189 477 207 459 q 225 441 225 416 q 225 391 207 373 q 189 356 163 356 q 136 356 118 373 q 101 390 101 416 z m 101 46 q 101 72 119 89 q 137 107 163 107 q 189 107 207 89 q 225 72 225 46 q 225 21 207 3 q 189 -14 163 -14 q 136 -14 118 3 q 101 20 101 46 z"},"$":{"x_min":0,"x_max":653,"ha":653,"o":"m 73 79 l 112 197 l 118 197 q 133 124 184 82 q 235 40 311 40 q 375 40 415 76 q 456 111 456 167 q 456 241 321 269 q 290 275 273 279 q 188 299 150 334 q 112 369 112 427 q 112 497 165 543 q 218 590 312 600 l 312 687 l 347 687 l 347 600 q 400 597 446 587 q 492 577 531 559 l 497 455 l 491 456 q 480 516 441 548 q 402 580 340 580 q 279 580 241 549 q 203 519 203 470 q 203 439 219 418 q 234 397 268 383 q 291 373 344 365 q 397 356 420 351 q 488 335 523 299 q 558 262 558 207 q 558 136 501 84 q 444 33 349 19 l 349 -75 l 310 -75 l 310 19 q 249 20 191 35 q 133 49 73 79 z"},"?":{"x_min":0,"x_max":510,"ha":510,"o":"m 219 152 q 218 156 218 161 q 218 165 218 173 q 218 201 226 226 q 235 251 260 291 q 265 299 276 314 q 349 420 349 495 q 349 563 314 604 q 278 644 219 644 q 160 644 116 604 q 72 565 54 494 l 47 494 l 14 613 q 69 639 122 652 q 174 665 225 665 q 330 665 398 613 q 467 562 467 484 q 467 457 458 431 q 449 406 431 385 q 414 365 367 328 q 319 291 299 273 q 269 247 254 217 q 239 187 238 152 z m 170 44 q 170 70 188 87 q 206 105 232 105 q 258 105 276 87 q 294 70 294 44 q 294 19 276 1 q 258 -16 232 -16 q 205 -16 188 1 q 170 18 170 44 z"},"<":{"x_min":0,"x_max":833,"ha":833,"o":"m 704 566 l 704 491 l 231 298 l 704 106 l 704 31 l 129 267 l 129 330 z"},"'":{"x_min":0,"x_max":172,"ha":172,"o":"m 95 420 l 78 420 l 44 644 q 44 645 43 648 q 42 658 42 662 q 42 687 53 700 q 65 714 86 714 q 106 714 118 701 q 130 688 130 664 q 130 661 130 657 q 129 653 128 644 z"},"=":{"x_min":0,"x_max":833,"ha":833,"o":"m 124 235 l 709 235 l 709 167 l 124 167 z m 124 429 l 709 429 l 709 361 l 124 361 z"},"a":{"x_min":0,"x_max":602,"ha":602,"o":"m 592 -2 q 557 -1 537 0 q 517 0 501 0 l 467 0 q 456 21 447 44 q 438 68 431 96 q 401 44 351 15 q 300 -13 237 -13 q 147 -13 91 33 q 34 79 34 151 q 34 234 133 278 q 232 321 424 321 l 430 321 q 429 422 392 469 q 354 516 274 516 q 203 516 155 479 q 106 442 96 381 l 91 381 l 59 483 q 109 509 167 522 q 225 535 289 535 q 343 535 386 524 q 429 512 462 489 q 497 464 512 425 q 527 386 527 312 l 527 180 q 527 95 542 53 q 558 12 592 5 z m 430 300 q 423 300 415 301 q 406 301 391 301 q 273 301 210 260 q 147 220 147 144 q 147 85 179 51 q 212 17 268 17 q 353 17 392 76 q 430 134 430 267 z"},"L":{"x_min":0,"x_max":663,"ha":663,"o":"m 93 564 q 93 598 79 617 q 64 637 34 644 l 34 652 q 63 650 92 649 q 121 648 149 648 q 177 648 206 649 q 235 650 264 652 l 264 644 q 233 638 219 619 q 206 601 206 564 l 206 225 q 206 172 208 128 q 209 84 211 72 q 215 44 237 33 q 259 23 338 23 q 453 23 529 55 q 605 86 654 154 l 661 153 l 609 0 l 133 0 l 98 0 q 83 0 64 0 q 45 0 24 -1 l 24 7 q 64 14 79 51 q 93 88 93 225 z"},"3":{"x_min":0,"x_max":653,"ha":653,"o":"m 31 49 l 74 176 l 80 176 q 100 94 154 49 q 208 5 289 5 q 368 5 415 50 q 462 95 462 170 q 462 245 413 283 q 365 322 271 322 q 259 322 243 320 q 226 319 204 316 l 204 350 q 219 348 235 346 q 250 345 267 345 q 352 345 393 379 q 434 413 434 482 q 434 541 397 575 q 360 609 297 609 q 224 609 176 570 q 127 531 112 461 l 105 461 l 76 578 q 127 604 185 617 q 242 630 307 630 q 420 630 488 590 q 555 551 555 485 q 555 425 499 385 q 443 345 344 336 q 466 324 528 283 q 590 243 590 174 q 590 87 509 35 q 428 -17 289 -17 q 218 -17 155 -1 q 91 16 31 49 z"},";":{"x_min":0,"x_max":326,"ha":326,"o":"m 100 416 q 100 441 118 459 q 136 477 162 477 q 188 477 206 459 q 224 441 224 416 q 224 391 206 373 q 188 356 162 356 q 135 356 117 373 q 100 390 100 416 z m 174 -8 q 171 -8 167 -9 q 164 -9 158 -9 q 131 -9 116 7 q 100 22 100 48 q 100 74 117 91 q 135 108 162 108 q 192 108 209 88 q 226 68 226 33 q 226 -10 201 -59 q 176 -107 135 -141 l 122 -132 q 149 -92 161 -62 q 174 -32 174 -8 z"},"J":{"x_min":0,"x_max":444,"ha":444,"o":"m -10 -1 l 27 123 l 33 123 q 44 71 74 41 q 104 10 143 10 q 198 10 220 67 q 241 124 241 295 l 241 564 q 241 600 226 618 q 211 636 176 644 l 176 652 q 183 652 195 651 q 268 648 299 648 q 336 648 409 652 l 412 652 l 412 644 q 381 637 368 619 q 354 600 354 564 l 354 350 q 354 340 354 316 q 355 292 355 279 q 355 192 340 146 q 326 100 290 62 q 252 21 204 1 q 156 -19 98 -19 q 75 -19 48 -14 q 21 -10 -10 -1 z"},"V":{"x_min":0,"x_max":744,"ha":744,"o":"m -7 644 l -7 652 q 32 650 61 649 q 89 648 114 648 q 137 648 163 649 q 188 650 225 652 l 225 644 q 200 639 189 629 q 179 619 179 600 q 179 591 184 578 q 189 565 203 539 l 420 131 l 559 426 q 584 479 598 520 q 612 561 612 582 q 612 611 596 627 q 581 643 551 644 l 551 651 q 581 649 606 649 q 631 648 653 648 q 675 648 700 649 q 725 649 751 651 l 751 644 q 718 635 676 574 q 633 514 575 394 l 374 -19 l 369 -19 l 111 490 l 111 491 q 38 633 -7 644 z"},"\"":{"x_min":0,"x_max":335,"ha":335,"o":"m 257 420 l 240 420 l 206 644 q 206 647 205 651 q 205 655 205 662 q 205 687 216 700 q 227 714 248 714 q 269 714 280 701 q 292 688 292 664 q 292 656 292 652 q 292 648 291 644 z m 95 420 l 78 420 l 44 644 q 43 652 42 657 q 42 661 42 664 q 42 688 54 701 q 65 714 86 714 q 107 714 119 700 q 130 687 130 662 q 130 654 130 651 q 129 647 129 644 z"},"7":{"x_min":0,"x_max":653,"ha":653,"o":"m 57 465 l 50 466 l 101 616 q 152 614 181 614 q 210 613 220 613 l 612 613 q 605 578 582 541 q 559 503 493 430 q 413 341 375 253 q 338 165 338 67 q 338 62 339 37 q 339 12 340 -3 q 317 -1 300 -1 q 283 0 272 0 q 260 0 241 -1 q 221 -1 194 -3 q 198 101 239 182 q 281 263 404 377 q 474 442 497 471 q 520 501 527 528 l 218 528 q 151 528 115 513 q 78 499 57 465 z"},"S":{"x_min":0,"x_max":671,"ha":671,"o":"m 20 45 l 62 190 l 69 189 q 81 109 150 56 q 218 3 310 3 q 403 3 460 46 q 517 88 517 157 q 517 187 504 209 q 492 232 469 244 q 432 263 335 276 q 297 282 277 285 q 162 305 109 347 q 57 389 57 461 q 57 552 137 610 q 216 667 347 667 q 413 667 478 653 q 543 639 596 613 l 558 494 l 549 495 q 536 565 482 605 q 428 644 345 644 q 264 644 211 606 q 159 568 159 511 q 159 483 175 459 q 190 436 216 423 q 259 402 378 386 q 420 379 442 376 q 535 361 579 321 q 623 281 623 213 q 623 109 539 45 q 455 -20 318 -20 q 232 -20 155 -3 q 78 14 20 45 z"},"}":{"x_min":0,"x_max":500,"ha":500,"o":"m 86 740 l 91 740 q 198 740 239 704 q 279 668 279 571 l 279 470 q 279 392 307 362 q 335 333 414 326 l 414 295 q 335 289 307 259 q 279 229 279 151 l 279 50 q 279 -47 239 -83 q 198 -119 91 -119 l 86 -119 l 86 -93 q 153 -92 177 -67 q 201 -41 201 35 l 201 104 q 201 215 230 255 q 258 294 336 310 q 259 326 230 365 q 201 405 201 516 l 201 585 q 201 662 177 688 q 152 713 86 714 z"},"Z":{"x_min":0,"x_max":623,"ha":623,"o":"m 25 0 l 25 7 q 79 79 133 155 q 187 232 251 328 l 401 550 q 414 570 417 579 q 421 587 421 594 q 421 612 404 618 q 387 625 325 625 q 230 625 163 597 q 95 568 39 506 l 33 508 l 78 648 l 589 648 l 589 641 q 432 420 328 251 q 223 83 223 57 q 223 37 240 30 q 257 23 313 23 q 413 23 485 56 q 558 89 608 157 l 614 155 l 567 0 z"},"x":{"x_min":0,"x_max":583,"ha":583,"o":"m 0 -3 l 0 3 q 36 17 86 64 q 136 112 254 253 l 153 397 q 104 467 81 489 q 58 510 33 517 l 33 524 q 61 522 88 522 q 116 521 143 521 q 182 521 202 522 q 222 522 240 524 l 240 517 q 226 514 219 507 q 211 500 211 490 q 211 482 223 459 q 235 436 254 411 l 324 317 q 335 330 355 353 q 440 453 440 478 q 440 494 430 503 q 421 512 398 517 l 398 524 q 422 522 444 522 q 465 521 484 521 q 514 521 532 522 q 551 522 568 524 l 568 517 q 531 503 478 454 q 425 405 337 300 l 440 162 q 492 91 529 53 q 565 14 590 3 l 590 -3 q 561 -1 534 -1 q 507 0 481 0 q 452 0 421 -1 q 391 -1 359 -3 l 359 3 q 377 7 386 14 q 394 21 394 34 q 394 43 383 64 q 372 85 352 115 l 268 234 q 194 149 168 109 q 141 69 141 48 q 141 32 152 21 q 163 9 184 3 l 184 -3 q 160 -1 135 -1 q 111 0 87 0 q 68 0 47 -1 q 25 -1 0 -3 z"},")":{"x_min":0,"x_max":319,"ha":319,"o":"m 57 -174 l 42 -174 q 90 -98 113 3 q 136 104 136 247 q 136 391 113 494 q 90 597 42 667 l 57 667 q 155 556 196 458 q 236 360 236 247 q 236 129 195 31 q 153 -66 57 -174 z"},"&":{"x_min":0,"x_max":706,"ha":706,"o":"m 543 0 l 482 52 q 431 17 380 0 q 329 -17 274 -17 q 177 -17 114 29 q 50 76 50 143 q 50 200 90 246 q 130 292 210 325 q 184 365 171 398 q 159 431 159 462 q 159 531 207 576 q 254 621 329 621 q 388 621 427 587 q 467 553 467 504 q 467 456 426 414 q 386 373 312 346 q 348 305 396 259 q 443 212 512 151 q 524 174 529 190 q 533 207 533 222 q 533 260 509 286 q 484 312 442 318 l 442 325 l 620 325 q 616 267 597 216 q 579 165 548 124 q 588 89 629 60 q 669 30 711 6 l 711 -2 q 664 -1 638 0 q 612 0 590 0 z m 296 362 q 338 381 359 413 q 380 444 380 489 q 380 536 357 567 q 333 597 298 597 q 265 597 243 573 q 221 549 221 513 q 221 481 240 443 q 258 406 296 362 z m 457 70 q 380 139 323 198 q 265 256 222 308 q 192 288 178 260 q 163 232 163 195 q 163 122 215 73 q 267 23 345 23 q 377 23 404 34 q 431 46 457 70 z"},"_":{"x_min":0,"x_max":500,"ha":500,"o":"m 0 -166 l 500 -166 l 500 -236 l 0 -236 z"},"v":{"x_min":0,"x_max":612,"ha":612,"o":"m 293 -14 l 102 363 q 60 446 36 478 q 11 510 -12 517 l -12 524 q 7 522 28 522 q 49 521 87 521 q 115 521 142 522 q 168 522 193 524 l 193 517 q 174 513 164 505 q 154 497 154 485 q 154 474 161 457 q 168 439 185 409 l 344 121 l 455 349 q 474 388 484 418 q 495 448 495 462 q 495 484 481 498 q 466 512 437 517 l 437 524 q 459 522 481 522 q 502 521 524 521 q 547 521 569 522 q 592 522 614 524 l 614 517 q 588 506 556 464 q 524 422 487 350 l 299 -14 z"},"O":{"x_min":0,"x_max":819,"ha":819,"o":"m 174 325 q 174 173 237 87 q 299 2 411 2 q 519 2 582 88 q 646 175 646 324 q 646 477 583 562 q 521 646 408 646 q 296 646 235 562 q 174 479 174 325 z m 42 326 q 42 474 145 571 q 248 667 408 667 q 569 667 673 570 q 777 473 777 326 q 777 180 672 81 q 567 -19 411 -19 q 251 -19 147 80 q 42 178 42 326 z"},"(":{"x_min":0,"x_max":319,"ha":319,"o":"m 262 -174 q 166 -66 124 31 q 83 129 83 247 q 83 364 125 462 q 167 561 262 667 l 278 667 q 230 597 207 494 q 184 391 184 247 q 184 104 207 3 q 229 -98 278 -174 z"},"C":{"x_min":0,"x_max":738,"ha":738,"o":"m 709 71 q 645 25 574 3 q 502 -19 417 -19 q 251 -19 147 77 q 43 173 43 328 q 43 479 147 573 q 251 667 419 667 q 495 667 563 648 q 632 629 690 593 l 656 472 l 646 474 q 621 561 569 603 q 517 645 435 645 q 316 645 246 559 q 176 473 176 327 q 176 179 246 91 q 316 2 432 2 q 520 2 582 54 q 643 107 660 197 l 670 198 z"},"W":{"x_min":0,"x_max":1000,"ha":1000,"o":"m -4 644 l -4 652 q 6 651 25 650 q 76 647 99 647 q 122 647 171 650 q 196 651 210 652 l 210 644 q 186 639 176 630 q 166 621 166 602 q 166 587 174 560 q 181 532 194 501 l 333 165 l 532 667 l 540 667 l 756 166 l 858 461 q 870 494 876 528 q 883 561 883 582 q 883 611 870 626 q 858 642 832 644 l 832 651 q 855 649 878 649 q 900 648 922 648 q 944 648 965 649 q 987 649 1008 651 l 1008 644 q 981 640 948 582 q 916 524 867 394 l 714 -19 l 710 -19 l 494 507 l 287 -19 l 283 -19 l 66 539 q 46 590 31 613 q 15 636 -4 644 z"},"A":{"x_min":0,"x_max":764,"ha":764,"o":"m 229 322 q 242 321 257 320 q 272 320 301 320 l 361 320 q 395 320 410 320 q 425 321 437 322 l 333 532 z m -7 -3 l -7 3 q 28 24 69 82 q 110 139 154 226 l 375 667 l 383 667 l 613 231 q 619 221 629 200 q 718 31 771 3 l 771 -3 q 743 -1 718 -1 q 693 0 670 0 q 616 0 580 -1 q 543 -1 508 -3 l 508 3 q 533 11 543 23 q 553 35 553 57 q 553 72 545 95 q 537 118 513 167 l 452 295 q 437 296 423 296 q 408 297 390 297 l 280 297 q 255 297 242 296 q 229 296 217 295 l 182 218 q 159 167 147 131 q 135 96 135 75 q 135 48 149 31 q 164 14 197 3 l 197 -3 q 181 -1 161 -1 q 141 0 102 0 q 68 0 43 -1 q 18 -1 -7 -3 z"},"f":{"x_min":0,"x_max":329,"ha":329,"o":"m 102 467 l 15 467 l 15 473 l 28 500 l 102 500 l 102 512 q 102 614 157 671 q 213 728 312 728 q 322 728 335 727 q 348 727 361 725 l 328 632 l 321 632 q 306 669 290 685 q 274 700 252 700 q 223 700 210 674 q 197 647 197 588 l 197 500 l 303 500 l 303 493 l 291 467 l 197 467 l 197 217 q 197 91 211 54 q 226 18 265 5 l 265 -3 q 242 -1 216 -1 q 191 0 148 0 q 111 0 85 -1 q 60 -1 34 -3 l 34 5 q 73 17 87 54 q 102 92 102 212 l 102 247 z"},"Q":{"x_min":0,"x_max":819,"ha":819,"o":"m 230 -107 l 219 -80 q 247 -62 284 -46 q 322 -31 371 -18 q 222 0 132 94 q 42 189 42 326 q 42 474 145 571 q 248 667 408 667 q 569 667 673 570 q 777 473 777 326 q 777 186 681 90 q 585 -5 431 -18 q 514 -39 610 -83 q 707 -128 725 -128 q 734 -128 744 -125 q 755 -123 769 -117 l 773 -124 q 733 -154 690 -172 q 648 -190 606 -194 q 535 -169 444 -114 q 354 -59 322 -59 q 301 -59 279 -71 q 256 -82 230 -107 z m 174 325 q 174 173 237 87 q 299 2 411 2 q 519 2 582 88 q 646 175 646 324 q 646 477 583 562 q 521 646 408 646 q 296 646 235 562 q 174 479 174 325 z"},"w":{"x_min":0,"x_max":961,"ha":961,"o":"m 677 -14 l 671 -14 l 471 411 l 273 -14 l 267 -14 l 94 363 q 56 447 34 479 q 12 511 -9 517 l -9 524 q 15 522 36 522 q 58 521 78 521 q 105 521 132 522 q 159 522 186 524 l 186 517 q 168 516 158 506 q 148 497 148 481 q 148 469 154 451 q 160 434 172 409 l 314 128 l 503 535 l 509 535 l 717 124 l 819 352 q 837 393 846 421 q 855 448 855 462 q 855 484 842 498 q 829 512 802 517 l 802 524 q 823 522 842 522 q 862 521 881 521 q 902 521 922 522 q 942 522 963 524 l 963 517 q 938 505 911 465 q 883 425 848 350 z"},"-":{"x_min":0,"x_max":281,"ha":281,"o":"m 46 230 l 63 291 l 235 291 l 219 230 z"},"E":{"x_min":0,"x_max":689,"ha":689,"o":"m 31 648 q 55 647 86 646 q 118 646 187 646 l 589 648 l 641 507 l 634 504 q 580 570 512 598 q 444 625 276 625 l 268 625 q 245 625 230 625 q 215 625 201 624 l 201 358 q 213 357 235 357 q 257 356 263 356 l 351 356 q 431 356 472 376 q 512 396 532 444 l 538 444 l 538 244 l 532 244 q 514 291 472 312 q 430 333 351 333 l 254 333 q 252 333 235 332 q 217 332 201 331 l 201 191 q 201 126 204 95 q 206 65 212 54 q 222 37 242 30 q 263 23 334 23 q 468 23 544 53 q 621 84 672 154 l 679 153 l 627 0 l 128 0 l 94 0 q 78 0 59 0 q 41 0 19 -1 l 19 7 q 59 14 73 51 q 88 88 88 225 l 88 558 q 88 598 74 617 q 61 637 31 641 z"},"s":{"x_min":0,"x_max":567,"ha":567,"o":"m 22 33 l 56 146 l 62 146 q 69 83 126 45 q 183 7 268 7 q 340 7 385 41 q 430 75 430 128 q 430 171 402 192 q 374 212 265 227 q 152 243 104 277 q 57 312 57 377 q 57 447 123 491 q 188 535 296 535 q 354 535 404 527 q 455 518 494 502 l 465 406 l 459 406 q 443 462 404 490 q 365 517 303 517 q 236 517 192 485 q 149 453 149 405 q 149 365 181 345 q 213 325 301 316 q 430 303 478 271 q 526 240 526 176 q 526 87 455 36 q 383 -14 256 -14 q 192 -14 134 -2 q 75 9 22 33 z"},">":{"x_min":0,"x_max":833,"ha":833,"o":"m 129 566 l 704 330 l 704 267 l 129 31 l 129 106 l 603 298 l 129 491 z"},"l":{"x_min":0,"x_max":252,"ha":252,"o":"m 11 -3 l 11 5 q 50 17 64 53 q 79 90 79 199 l 79 247 l 79 579 q 79 645 67 663 q 55 682 21 684 l 21 692 q 56 696 95 705 q 134 714 180 729 q 177 679 175 632 q 174 585 174 537 l 174 217 q 174 91 188 54 q 203 18 242 5 l 242 -3 q 219 -1 193 -1 q 168 0 125 0 q 88 0 62 -1 q 37 -1 11 -3 z"},"8":{"x_min":0,"x_max":653,"ha":653,"o":"m 362 363 q 416 383 441 413 q 467 444 467 488 q 467 545 429 577 q 391 609 324 609 q 259 609 219 579 q 178 548 178 500 q 178 450 221 417 q 265 385 362 363 z m 279 296 q 212 275 179 240 q 146 206 146 154 q 146 87 195 47 q 244 6 324 6 q 400 6 448 43 q 496 81 496 140 q 496 196 450 231 q 404 265 279 296 z m 241 306 q 165 325 123 367 q 80 409 80 465 q 80 538 147 584 q 214 630 324 630 q 433 630 498 592 q 563 554 563 492 q 563 438 519 402 q 476 366 392 353 q 505 327 555 285 q 605 244 605 176 q 605 89 526 37 q 447 -16 315 -16 q 191 -16 115 31 q 38 78 38 150 q 38 213 90 253 q 142 292 241 306 z"},"\\":{"x_min":0,"x_max":572,"ha":572,"o":"m 572 -83 l 572 -93 l 525 -93 l 0 657 l 0 667 l 47 667 z"},"e":{"x_min":0,"x_max":611,"ha":611,"o":"m 574 328 l 153 328 q 151 306 151 291 q 150 275 150 266 q 150 148 203 82 q 256 16 350 16 q 427 16 484 68 q 542 120 569 215 l 584 195 q 554 92 487 39 q 419 -14 317 -14 q 196 -14 116 62 q 37 139 37 255 q 37 381 114 458 q 191 534 316 534 q 424 534 493 479 q 562 424 574 328 z m 155 349 l 453 349 q 450 426 413 471 q 375 516 315 516 q 253 516 212 472 q 170 429 155 349 z"},"b":{"x_min":0,"x_max":659,"ha":659,"o":"m 5 -2 l 5 5 q 42 14 55 56 q 69 99 69 229 l 69 573 q 69 647 58 665 q 46 682 14 684 l 14 692 q 43 695 79 704 q 114 712 168 729 q 166 690 165 650 q 164 610 164 546 l 164 399 q 183 462 233 499 q 283 535 351 535 q 468 535 544 461 q 619 387 619 271 q 619 149 544 69 q 469 -12 356 -12 q 296 -12 247 15 q 198 42 164 94 q 159 69 150 46 q 142 23 129 0 l 70 0 q 62 0 36 -1 q 17 -1 5 -2 z m 164 261 q 164 144 209 79 q 255 13 335 13 q 413 13 459 80 q 506 146 506 261 q 506 377 460 444 q 415 511 336 511 q 255 511 209 445 q 164 379 164 261 z"},"%":{"x_min":0,"x_max":708,"ha":708,"o":"m 456 147 q 456 69 472 36 q 488 2 524 2 q 561 2 577 35 q 593 68 593 147 q 593 224 577 258 q 561 292 524 292 q 488 292 472 258 q 456 225 456 147 z m 375 147 q 375 222 416 266 q 456 310 524 310 q 592 310 633 266 q 674 221 674 147 q 674 73 633 29 q 592 -16 524 -16 q 455 -16 415 28 q 375 72 375 147 z m 116 467 q 116 390 132 356 q 148 322 184 322 q 221 322 237 355 q 253 388 253 467 q 253 544 237 577 q 221 611 184 611 q 148 611 132 578 q 116 544 116 467 z m 35 466 q 35 541 76 585 q 116 629 184 629 q 252 629 293 585 q 334 541 334 466 q 334 392 293 348 q 252 303 184 303 q 115 303 75 347 q 35 391 35 466 z m 104 -16 l 104 -9 l 562 630 l 605 630 l 605 622 l 148 -16 z"},"m":{"x_min":0,"x_max":1008,"ha":1008,"o":"m 15 -3 l 15 5 q 50 15 63 51 q 76 87 76 229 l 76 375 q 76 443 65 459 q 54 475 23 477 l 23 485 q 67 490 158 520 l 162 521 l 162 374 q 182 451 232 493 q 283 534 357 534 q 437 534 485 498 q 533 462 549 391 q 572 459 624 497 q 675 534 746 534 q 844 534 890 475 q 936 416 936 289 l 936 194 q 936 80 949 47 q 961 15 996 5 l 996 -3 q 975 -1 951 -1 q 928 0 887 0 q 852 0 829 -1 q 805 -1 782 -3 l 782 5 q 815 16 828 48 q 841 81 841 185 l 841 229 l 841 281 q 841 393 809 449 q 777 505 713 505 q 644 505 601 447 q 559 388 559 289 l 559 186 q 559 80 573 48 q 586 16 622 5 l 622 -3 q 592 -1 565 -1 q 539 0 516 0 q 476 0 451 -1 q 426 -1 402 -3 l 402 5 q 438 16 451 49 q 465 82 465 196 l 465 229 l 465 281 q 465 392 431 448 q 397 505 331 505 q 259 505 215 444 q 172 383 172 280 l 172 209 l 172 197 q 172 78 185 47 q 197 16 233 5 l 233 -3 q 206 -1 179 -1 q 152 0 125 0 q 100 0 73 -1 q 45 -1 15 -3 z"},"#":{"x_min":0,"x_max":769,"ha":769,"o":"m 343 422 l 295 287 l 433 287 l 480 422 z m 371 712 l 447 712 l 368 490 l 503 490 l 582 712 l 658 712 l 579 490 l 726 490 l 702 422 l 555 422 l 508 287 l 664 287 l 640 219 l 484 219 l 405 -2 l 329 -2 l 408 219 l 272 219 l 193 -2 l 118 -2 l 196 219 l 43 219 l 68 287 l 220 287 l 268 422 l 104 422 l 129 490 l 292 490 z"},",":{"x_min":0,"x_max":326,"ha":326,"o":"m 175 -8 q 172 -8 168 -9 q 165 -9 159 -9 q 132 -9 117 7 q 101 22 101 48 q 101 74 118 91 q 136 108 163 108 q 193 108 210 88 q 227 68 227 33 q 227 -10 202 -59 q 177 -107 136 -141 l 123 -132 q 150 -92 162 -62 q 175 -32 175 -8 z"},"n":{"x_min":0,"x_max":648,"ha":648,"o":"m 12 -3 l 12 5 q 49 16 62 48 q 76 80 76 187 l 76 229 l 76 375 q 76 439 65 457 q 53 475 21 477 l 21 485 q 54 489 90 498 q 125 507 164 521 l 164 373 q 188 454 240 494 q 292 534 372 534 q 477 534 527 475 q 576 416 576 289 l 576 201 q 576 78 590 47 q 603 16 641 5 l 641 -3 q 613 -1 585 -1 q 558 0 531 0 q 490 0 464 -1 q 439 -1 415 -3 l 415 5 q 452 16 465 48 q 479 80 479 187 l 479 229 l 479 281 q 479 395 445 449 q 411 504 340 504 q 264 504 219 443 q 174 383 174 280 l 174 199 q 174 80 188 47 q 201 15 238 5 l 238 -3 q 210 -1 183 -1 q 155 0 128 0 q 86 0 61 -1 q 36 -1 12 -3 z"},"h":{"x_min":0,"x_max":644,"ha":644,"o":"m 7 -3 l 7 5 q 44 16 58 49 q 72 83 72 196 l 72 229 l 72 584 q 72 647 60 665 q 49 683 16 685 l 16 693 q 50 696 88 705 q 126 714 171 730 q 168 693 167 647 q 166 602 166 539 l 166 391 q 187 460 239 497 q 291 534 367 534 q 473 534 522 475 q 572 416 572 289 l 572 201 l 572 190 q 572 76 585 46 q 599 16 636 5 l 636 -3 q 608 -1 581 -1 q 553 0 526 0 q 484 0 459 -1 q 434 -1 410 -3 l 410 5 q 447 16 461 49 q 475 83 475 196 l 475 229 l 475 281 q 475 395 441 449 q 407 504 336 504 q 260 504 214 443 q 169 383 169 280 l 169 199 q 169 80 182 47 q 196 15 233 5 l 233 -3 q 205 -1 177 -1 q 150 0 123 0 q 82 0 56 -1 q 31 -1 7 -3 z"},"z":{"x_min":0,"x_max":581,"ha":581,"o":"m 31 0 l 31 6 q 99 84 189 203 q 202 220 208 228 l 349 413 l 352 417 q 391 470 391 483 q 391 492 375 497 q 358 501 322 501 q 222 501 167 477 q 112 453 65 395 l 59 397 l 107 521 l 543 521 l 543 514 q 399 337 305 201 q 211 65 211 40 q 211 30 224 25 q 238 20 266 20 q 378 20 444 48 q 509 76 562 142 l 569 140 l 522 -2 q 517 -2 507 -1 q 457 0 438 0 l 371 0 z"},"B":{"x_min":0,"x_max":745,"ha":745,"o":"m 19 -1 l 19 7 q 59 14 73 51 q 88 88 88 225 l 88 558 q 88 598 75 617 q 62 636 31 641 l 31 649 q 66 648 100 648 q 133 648 173 648 q 197 648 255 649 q 312 650 346 650 q 503 650 576 614 q 650 579 650 502 q 650 440 599 403 q 547 366 444 353 q 575 342 640 300 q 706 257 706 182 q 706 90 622 43 q 539 -3 373 -3 q 361 -3 287 -1 q 213 0 151 0 q 97 0 69 0 q 42 0 19 -1 z m 201 359 q 213 358 224 358 q 234 358 243 358 l 264 358 l 310 358 q 419 358 474 393 q 530 429 530 498 q 530 564 476 596 q 421 628 308 628 q 285 628 258 627 q 230 626 201 624 z m 202 334 l 202 224 q 202 155 204 115 q 206 76 209 63 q 215 39 241 29 q 267 20 347 20 q 459 20 519 61 q 578 102 578 179 q 578 261 516 298 q 453 336 315 336 l 264 336 q 248 336 208 334 q 204 334 202 334 z"},"K":{"x_min":0,"x_max":683,"ha":683,"o":"m 204 341 l 375 492 q 433 542 456 570 q 479 598 479 616 q 479 628 472 634 q 466 640 448 643 l 448 651 q 479 649 505 649 q 531 648 551 648 q 572 648 598 649 q 624 649 653 651 l 653 643 q 613 628 559 592 q 504 557 430 497 l 257 359 q 345 357 396 333 q 447 309 491 248 q 510 222 543 170 q 629 39 685 5 l 685 -3 q 655 -1 630 -1 q 604 0 582 0 q 571 0 551 -1 q 531 -1 503 -3 q 471 48 419 135 q 303 329 250 329 q 227 329 215 314 q 204 299 204 267 l 204 225 q 204 90 218 53 q 232 16 273 5 l 273 -3 q 231 -1 199 -1 q 167 0 143 0 q 115 0 84 -1 q 53 -1 21 -3 l 21 5 q 62 15 76 52 q 90 88 90 225 l 90 564 q 90 599 77 617 q 64 636 33 644 l 33 652 q 62 650 91 649 q 119 648 147 648 q 175 648 204 649 q 233 650 262 652 l 262 644 q 231 637 218 619 q 204 600 204 564 z"},"R":{"x_min":0,"x_max":743,"ha":743,"o":"m 21 -3 l 21 5 q 61 15 75 50 q 89 85 89 225 l 89 558 q 89 598 75 617 q 62 637 32 641 l 32 649 q 50 648 84 648 q 118 648 222 648 l 353 648 q 520 648 595 611 q 670 574 670 494 q 670 422 604 381 q 538 340 418 337 q 500 327 550 296 q 599 264 627 204 q 639 177 658 128 q 700 19 743 9 l 743 -2 q 735 -2 720 -1 q 667 0 648 0 q 630 0 611 0 q 591 0 570 -1 q 551 43 523 129 q 495 214 475 246 q 445 294 401 313 q 358 333 268 333 l 250 333 q 248 333 232 332 q 217 332 203 331 l 203 225 q 203 90 217 53 q 231 16 272 5 l 272 -3 q 230 -1 198 -1 q 166 0 142 0 q 114 0 84 -1 q 54 -1 21 -3 z m 203 358 q 217 357 232 357 q 247 356 248 356 q 320 356 362 358 q 403 361 429 366 q 479 376 509 411 q 540 445 540 492 q 540 560 485 593 q 430 625 313 625 q 287 625 260 625 q 234 624 203 623 z"},"T":{"x_min":0,"x_max":706,"ha":706,"o":"m 0 506 l 46 648 l 660 648 l 706 506 l 696 504 q 649 563 593 594 q 537 626 480 626 q 438 626 424 609 q 410 591 410 519 l 410 257 q 410 105 425 62 q 439 20 481 7 l 481 -3 q 454 -1 425 -1 q 396 0 349 0 q 298 0 273 -1 q 247 -1 225 -3 l 225 7 q 266 18 281 60 q 295 102 295 257 l 295 519 q 295 592 282 609 q 269 626 231 626 q 171 626 115 595 q 58 563 9 503 z"},"P":{"x_min":0,"x_max":671,"ha":671,"o":"m 24 -3 l 24 5 q 64 15 78 50 q 92 85 92 225 l 92 558 q 92 598 78 617 q 64 637 35 641 l 35 649 q 66 648 100 648 q 134 648 192 648 l 293 648 q 496 648 583 608 q 671 568 671 479 q 671 398 580 350 q 488 302 330 302 q 298 302 268 303 q 237 305 206 307 l 206 225 q 206 90 220 53 q 234 16 275 5 l 275 -3 q 233 -1 201 -1 q 168 0 145 0 q 117 0 87 -1 q 57 -1 24 -3 z m 206 334 q 242 330 268 327 q 294 325 312 325 q 416 325 478 368 q 540 411 540 481 q 540 556 478 591 q 416 626 282 626 q 266 626 247 625 q 228 625 206 623 z"},"|":{"x_min":0,"x_max":500,"ha":500,"o":"m 214 764 l 287 764 l 287 -236 l 214 -236 z"},"t":{"x_min":0,"x_max":319,"ha":319,"o":"m 22 467 l 26 484 q 79 500 118 538 q 157 576 194 648 l 201 648 q 199 619 197 583 q 196 546 195 500 l 304 500 l 304 493 l 294 467 l 195 467 l 195 249 q 195 110 211 62 q 228 14 272 5 l 272 -1 q 240 0 208 0 q 177 0 134 0 q 114 14 105 38 q 97 62 97 122 l 97 160 l 97 198 l 97 218 l 103 467 z"},"M":{"x_min":0,"x_max":854,"ha":854,"o":"m 2 -3 l 2 5 q 51 25 70 77 q 90 129 90 255 l 90 295 l 90 515 q 90 581 75 605 q 60 629 22 642 l 22 650 q 47 649 71 648 q 94 648 114 648 q 147 648 167 648 q 186 648 205 649 q 246 551 302 436 q 358 320 440 165 l 653 650 q 658 650 668 649 q 712 648 728 648 q 754 648 813 650 q 819 650 822 650 l 822 642 q 790 637 777 612 q 765 588 765 518 l 765 218 q 765 91 779 53 q 793 15 834 5 l 834 -3 q 805 -1 776 -1 q 747 0 706 0 q 679 0 649 -1 q 619 -1 586 -3 l 586 5 q 626 15 640 52 q 654 89 654 225 l 654 586 l 389 -19 l 382 -19 q 314 147 247 295 q 180 443 116 565 l 116 275 q 116 125 135 76 q 153 27 202 5 l 202 -3 q 171 -1 147 -1 q 124 0 108 0 q 82 0 56 -1 q 29 -1 2 -3 z"},"g":{"x_min":0,"x_max":630,"ha":630,"o":"m 295 39 q 209 39 162 11 q 115 -17 115 -67 q 115 -118 165 -148 q 215 -178 301 -178 q 397 -178 453 -147 q 509 -115 509 -62 q 509 -12 455 13 q 401 39 295 39 z m 310 517 q 245 517 205 470 q 164 424 164 348 q 164 274 204 230 q 244 186 310 186 q 378 186 415 231 q 451 276 451 360 q 451 432 413 475 q 375 517 310 517 z m 208 54 q 155 58 131 72 q 107 85 107 111 q 107 137 137 154 q 167 171 229 181 q 146 197 101 241 q 56 286 56 350 q 56 429 128 482 q 200 535 307 535 q 325 535 346 532 q 368 530 401 523 q 439 564 482 585 q 524 607 565 607 q 574 607 584 606 q 594 605 607 604 l 573 498 l 567 498 q 557 519 534 533 q 511 547 487 547 q 469 547 453 539 q 437 532 421 516 q 492 489 526 448 q 560 408 560 351 q 560 277 501 226 q 441 176 346 170 q 329 169 300 168 q 214 165 214 141 q 214 119 323 109 q 354 106 372 105 q 493 94 550 61 q 606 28 606 -32 q 606 -107 521 -152 q 437 -197 289 -197 q 171 -197 95 -159 q 19 -121 19 -62 q 19 -14 65 14 q 112 42 208 54 z"},"j":{"x_min":0,"x_max":257,"ha":257,"o":"m 71 647 q 71 672 88 688 q 104 705 130 705 q 154 705 171 688 q 188 671 188 647 q 188 623 171 606 q 155 590 130 590 q 104 590 87 606 q 71 622 71 647 z m 185 524 l 185 370 l 185 71 q 185 -59 125 -129 q 65 -200 -42 -200 q -53 -200 -65 -199 q -78 -197 -92 -195 l -59 -92 l -53 -92 q -41 -127 -23 -146 q -4 -164 19 -164 q 59 -164 73 -107 q 87 -51 87 196 l 87 362 q 87 442 75 459 q 64 477 31 479 l 31 487 q 66 491 105 501 q 144 510 185 524 z"},"i":{"x_min":0,"x_max":262,"ha":262,"o":"m 18 -3 l 18 5 q 57 17 72 56 q 86 94 86 222 l 86 247 l 86 360 q 86 438 74 458 q 62 477 28 479 l 28 487 q 64 491 103 500 q 142 509 185 524 q 185 519 183 452 q 181 385 181 332 l 181 217 q 181 91 195 54 q 209 18 249 5 l 249 -3 q 226 -1 200 -1 q 175 0 132 0 q 95 0 70 -1 q 44 -1 18 -3 z m 72 647 q 72 672 89 688 q 105 705 131 705 q 156 705 173 688 q 190 671 190 647 q 190 623 173 606 q 156 590 131 590 q 104 590 88 606 q 72 622 72 647 z"},"y":{"x_min":0,"x_max":612,"ha":612,"o":"m 63 -193 l 105 -81 l 111 -81 q 119 -101 133 -110 q 147 -119 170 -119 q 209 -119 238 -87 q 266 -55 266 -10 q 266 9 259 35 q 251 60 237 89 l 102 363 q 63 441 38 476 q 12 510 -12 517 l -12 524 q 7 522 28 522 q 49 521 87 521 q 115 521 142 522 q 168 522 193 524 l 193 517 q 174 513 164 505 q 154 497 154 485 q 154 476 160 460 q 166 445 185 409 l 344 115 l 458 356 q 476 394 485 420 q 494 446 494 462 q 494 485 480 499 q 467 512 437 517 l 437 524 q 459 522 481 522 q 502 521 524 521 q 547 521 569 522 q 592 522 614 524 l 614 517 q 588 507 556 464 q 523 421 487 350 l 303 -16 q 255 -111 206 -154 q 156 -197 97 -197 q 86 -197 65 -193 q 64 -193 63 -193 z"},"@":{"x_min":0,"x_max":986,"ha":986,"o":"m 579 162 q 549 111 512 86 q 475 61 429 61 q 366 61 329 106 q 291 151 291 226 q 291 279 315 332 q 339 384 384 427 q 417 458 455 475 q 493 492 531 492 q 575 492 602 469 q 629 445 639 399 l 664 484 l 741 484 l 657 185 q 657 184 655 179 q 648 152 648 137 q 648 112 659 99 q 671 85 692 85 q 708 85 731 95 q 754 104 775 120 q 833 164 863 232 q 892 299 892 387 q 892 452 866 507 q 841 562 790 605 q 746 643 686 663 q 625 683 555 683 q 467 683 391 653 q 315 623 257 565 q 195 504 164 425 q 133 345 133 250 q 133 161 161 97 q 188 33 248 -17 q 301 -62 372 -86 q 443 -110 522 -110 q 605 -110 682 -85 q 758 -60 828 -9 l 844 -29 q 772 -83 692 -110 q 611 -137 523 -137 q 431 -137 354 -115 q 278 -93 220 -49 q 146 6 108 86 q 69 166 69 262 q 69 361 111 448 q 153 535 234 601 q 299 655 378 683 q 456 710 545 710 q 714 710 816 618 q 918 526 918 374 q 918 296 889 229 q 861 161 808 113 q 779 87 747 74 q 714 60 681 60 q 634 60 608 86 q 583 112 579 162 z m 539 469 q 513 469 491 454 q 469 439 447 406 q 412 354 392 292 q 371 230 371 180 q 371 138 390 113 q 410 87 440 87 q 472 87 500 108 q 528 129 554 173 q 581 218 597 272 q 614 327 614 369 q 614 414 593 442 q 573 469 539 469 z"},".":{"x_min":0,"x_max":326,"ha":326,"o":"m 101 46 q 101 72 119 89 q 137 107 163 107 q 189 107 207 89 q 225 72 225 46 q 225 21 207 3 q 189 -14 163 -14 q 136 -14 118 3 q 101 20 101 46 z"},"p":{"x_min":0,"x_max":656,"ha":656,"o":"m 1 -198 l 1 -191 q 40 -180 53 -145 q 67 -109 67 30 l 67 378 q 67 439 55 457 q 44 474 10 477 l 10 485 q 45 489 82 498 q 118 507 155 520 l 155 382 q 173 453 224 494 q 276 535 348 535 q 466 535 542 461 q 617 387 617 271 q 617 149 542 69 q 467 -12 353 -12 q 290 -12 239 18 q 188 47 163 99 l 163 -1 q 163 -114 179 -147 q 194 -180 240 -191 l 240 -198 q 218 -197 192 -196 q 166 -196 112 -196 q 71 -196 47 -196 q 23 -197 1 -198 z m 163 261 q 163 144 208 79 q 253 13 333 13 q 411 13 458 80 q 504 146 504 261 q 504 377 458 444 q 413 511 334 511 q 253 511 208 446 q 163 380 163 261 z"},"X":{"x_min":0,"x_max":706,"ha":706,"o":"m 3 -3 l 3 4 q 59 27 257 260 l 300 311 l 135 539 l 130 545 q 69 630 31 645 l 31 652 q 78 649 104 649 q 129 648 150 648 q 184 648 266 651 q 276 652 281 652 l 281 645 q 258 642 245 633 q 233 624 233 610 q 233 599 239 586 q 246 572 264 546 l 375 388 q 457 485 482 527 q 508 570 508 599 q 508 616 497 628 q 486 641 466 645 l 466 652 q 512 649 539 649 q 566 648 590 648 q 609 648 631 649 q 652 649 691 652 l 691 645 q 650 639 591 587 q 532 535 389 368 l 510 205 q 572 121 624 67 q 675 14 703 4 l 703 -3 q 666 -1 631 -1 q 597 0 566 0 q 530 0 495 -1 q 460 -1 425 -3 l 425 4 q 447 9 457 18 q 467 26 467 41 q 467 54 456 77 q 445 101 425 129 l 313 288 q 236 194 203 141 q 170 87 170 57 q 170 35 181 24 q 192 12 223 4 l 223 -3 q 183 -1 152 -1 q 121 0 101 0 q 79 0 55 -1 q 31 -1 3 -3 z"},"*":{"x_min":0,"x_max":500,"ha":500,"o":"m 250 463 l 183 334 l 116 384 l 219 486 l 77 510 l 102 589 l 231 523 l 211 667 l 289 667 l 269 523 l 398 589 l 423 510 l 281 486 l 384 384 l 316 334 z"},"Y":{"x_min":0,"x_max":700,"ha":700,"o":"m 228 -3 l 228 5 q 269 15 283 52 q 297 88 297 225 l 297 278 l 140 487 q 80 567 50 598 q 20 628 -7 644 l -7 652 q -4 652 2 651 q 77 648 109 648 q 149 648 236 652 l 245 652 l 245 644 q 221 639 209 628 q 198 618 198 600 q 198 576 245 516 l 246 515 l 401 322 l 435 370 q 571 561 571 594 q 571 612 560 624 q 549 635 524 644 l 524 652 q 560 649 578 649 q 597 648 613 648 q 643 648 704 652 l 707 652 l 707 644 q 663 621 594 539 q 526 458 410 290 l 410 225 q 410 92 424 54 q 438 16 480 5 l 480 -3 q 439 -1 407 -1 q 375 0 350 0 q 322 0 291 -1 q 260 -1 228 -3 z"},"c":{"x_min":0,"x_max":579,"ha":579,"o":"m 536 152 l 551 133 q 517 61 459 23 q 401 -14 322 -14 q 197 -14 118 62 q 38 139 38 259 q 38 382 118 458 q 198 534 328 534 q 390 534 444 519 q 499 504 547 474 l 514 367 l 508 367 q 493 435 446 475 q 399 515 335 515 q 253 515 203 450 q 153 384 153 275 q 153 154 205 85 q 257 16 346 16 q 408 16 457 51 q 505 85 536 152 z"},"!":{"x_min":0,"x_max":326,"ha":326,"o":"m 155 144 q 150 247 128 385 q 107 524 107 563 q 107 615 121 641 q 135 667 163 667 q 190 667 205 641 q 220 614 220 565 q 220 529 198 390 q 177 250 171 144 z m 101 44 q 101 70 119 87 q 137 105 163 105 q 189 105 207 87 q 225 70 225 44 q 225 19 207 1 q 189 -16 163 -16 q 136 -16 118 1 q 101 18 101 44 z"},"/":{"x_min":0,"x_max":572,"ha":572,"o":"m 0 -93 l 0 -83 l 525 667 l 572 667 l 572 657 l 46 -93 z"},"[":{"x_min":0,"x_max":319,"ha":319,"o":"m 263 -174 l 259 -174 q 173 -174 136 -141 q 100 -107 100 -28 l 100 521 q 100 601 136 634 q 173 667 259 667 l 263 667 l 263 650 q 219 647 203 625 q 187 603 187 521 l 187 -28 q 187 -109 203 -132 q 219 -154 263 -157 z"},"6":{"x_min":0,"x_max":653,"ha":653,"o":"m 591 568 l 553 454 l 546 455 q 530 529 484 569 q 438 609 369 609 q 267 609 216 528 q 165 448 165 287 l 165 278 q 192 344 243 376 q 294 409 371 409 q 477 409 545 352 q 614 295 614 206 q 614 109 539 47 q 464 -16 347 -16 q 209 -16 129 68 q 48 152 48 295 q 48 448 136 539 q 224 630 372 630 q 427 630 485 614 q 542 597 591 568 z m 179 196 q 179 109 221 57 q 264 6 334 6 q 411 6 452 58 q 494 110 494 205 q 494 286 451 334 q 408 383 337 383 q 268 383 223 331 q 179 279 179 196 z"},"r":{"x_min":0,"x_max":377,"ha":377,"o":"m 14 -3 l 14 5 q 52 17 65 50 q 79 83 79 205 l 79 229 l 79 379 q 79 442 67 461 q 56 479 23 481 l 23 489 q 55 493 90 502 q 125 511 166 524 l 166 362 q 197 440 244 482 q 292 524 349 524 q 357 524 362 524 q 367 523 370 523 l 334 410 l 326 410 q 317 421 305 427 q 293 433 278 433 q 228 433 202 388 q 176 344 176 258 l 176 199 q 176 80 189 48 q 203 16 240 5 l 240 -3 q 212 -1 185 -1 q 157 0 130 0 q 88 0 63 -1 q 38 -1 14 -3 z"},"2":{"x_min":0,"x_max":653,"ha":653,"o":"m 44 0 q 62 74 106 127 q 150 180 240 231 l 251 237 q 426 335 426 453 q 426 524 386 566 q 347 608 280 608 q 213 608 166 569 q 120 531 100 459 l 92 459 l 59 575 q 112 603 168 616 q 224 630 282 630 q 402 630 477 575 q 552 521 552 434 q 552 393 533 358 q 514 323 476 297 q 438 271 328 234 q 298 225 282 219 q 219 197 184 168 q 150 139 131 93 l 369 93 q 449 93 487 111 q 525 129 560 174 l 568 172 l 517 -3 q 504 -2 467 -1 q 431 0 412 0 l 366 0 z"},"{":{"x_min":0,"x_max":500,"ha":500,"o":"m 414 740 l 414 714 q 348 713 323 688 q 299 662 299 585 l 299 516 q 299 405 270 365 q 241 326 164 310 q 242 294 270 255 q 299 215 299 104 l 299 35 q 299 -42 323 -67 q 347 -92 414 -93 l 414 -119 l 409 -119 q 302 -119 262 -83 q 222 -47 222 50 l 222 151 q 222 229 193 259 q 165 289 87 295 l 87 326 q 166 333 194 362 q 222 392 222 470 l 222 571 q 222 668 262 704 q 302 740 409 740 z"},"9":{"x_min":0,"x_max":653,"ha":653,"o":"m 58 46 l 99 172 l 106 172 q 124 90 169 48 q 214 6 284 6 q 386 6 437 86 q 488 167 488 327 l 488 336 q 461 270 410 238 q 358 205 282 205 q 179 205 109 261 q 39 318 39 401 q 39 502 114 566 q 189 630 308 630 q 444 630 525 546 q 605 462 605 319 q 605 166 517 75 q 429 -16 281 -16 q 229 -16 170 0 q 111 17 58 46 z m 474 418 q 474 505 432 556 q 389 608 319 608 q 242 608 201 556 q 159 505 159 410 q 159 329 202 280 q 245 231 316 231 q 385 231 430 283 q 474 335 474 418 z"}," ":{"x_min":0,"x_max":326,"ha":326,"o":""},"I":{"x_min":0,"x_max":301,"ha":301,"o":"m 209 225 l 209 219 q 209 92 224 54 q 238 16 281 5 l 281 -3 q 250 -1 220 -1 q 190 0 147 0 q 101 0 73 -1 q 46 -1 21 -3 l 21 5 q 63 15 78 53 q 93 91 93 225 l 93 564 q 93 599 79 617 q 65 636 33 644 l 33 652 q 64 650 93 649 q 123 648 151 648 q 179 648 209 649 q 238 650 269 652 l 269 644 q 238 638 223 619 q 209 600 209 564 z"},"H":{"x_min":0,"x_max":778,"ha":778,"o":"m 576 359 l 576 564 q 576 599 562 619 q 548 638 519 644 l 519 652 q 548 650 577 649 q 605 648 633 648 q 661 648 690 649 q 719 650 748 652 l 748 644 q 718 639 704 619 q 690 600 690 564 l 690 225 q 690 92 704 53 q 718 15 759 5 l 759 -3 q 717 -1 685 -1 q 653 0 629 0 q 601 0 570 -1 q 540 -1 507 -3 l 507 5 q 547 14 562 52 q 576 90 576 225 l 576 331 q 555 332 533 333 q 511 333 476 333 l 301 333 q 266 333 244 333 q 222 332 201 331 l 201 225 q 201 92 215 54 q 229 16 271 5 l 271 -3 q 229 -1 197 -1 q 165 0 141 0 q 113 0 82 -1 q 51 -1 19 -3 l 19 5 q 60 15 74 52 q 88 88 88 225 l 88 564 q 88 599 74 617 q 61 636 30 644 l 30 652 q 59 650 88 649 q 117 648 145 648 q 173 648 201 649 q 229 650 259 652 l 259 644 q 228 637 215 619 q 201 600 201 564 l 201 359 q 226 357 251 357 q 276 356 301 356 l 476 356 q 485 356 510 357 q 535 357 576 359 z"},"4":{"x_min":0,"x_max":653,"ha":653,"o":"m 338 213 l 338 514 l 81 213 z m 572 160 q 546 164 519 165 q 491 167 461 167 l 439 167 q 439 79 457 47 q 474 16 522 5 l 522 -3 q 490 -1 458 -1 q 425 0 391 0 q 348 0 316 -1 q 284 -1 251 -3 l 251 5 q 301 15 319 44 q 338 74 338 150 l 338 160 l 18 160 l 31 202 l 434 653 l 440 653 q 439 626 439 594 q 439 562 439 493 l 439 213 l 444 213 q 506 213 544 232 q 583 251 614 298 l 620 297 z"},"~":{"x_min":0,"x_max":833,"ha":833,"o":"m 747 376 l 747 300 q 696 265 650 248 q 604 231 557 231 q 512 231 432 259 q 421 263 416 265 l 408 268 q 322 297 275 297 q 234 297 189 279 q 145 261 87 220 l 87 296 q 139 331 186 349 q 232 366 276 366 q 306 366 338 360 q 370 353 418 336 q 426 333 441 328 q 519 300 558 300 q 601 300 646 318 q 690 336 747 376 z"},"D":{"x_min":0,"x_max":785,"ha":785,"o":"m 201 623 l 201 225 q 201 72 222 45 q 243 18 335 18 q 466 18 538 98 q 609 179 609 328 q 609 483 538 555 q 467 627 313 627 q 273 627 249 626 q 224 625 201 623 z m 20 -3 l 20 5 q 60 15 74 49 q 88 83 88 225 l 88 558 q 88 598 75 617 q 62 636 31 641 l 31 649 q 64 648 96 648 q 127 648 169 648 q 197 648 247 649 q 297 650 320 650 q 428 650 495 635 q 562 619 613 584 q 676 541 708 478 q 741 416 741 338 q 741 263 714 197 q 686 132 635 85 q 585 40 518 20 q 450 0 337 0 l 155 0 q 108 0 78 -1 q 48 -1 20 -3 z"},"^":{"x_min":0,"x_max":1000,"ha":1000,"o":"m 452 714 l 547 714 l 797 438 l 749 438 l 499 643 l 248 438 l 201 438 z"},"0":{"x_min":0,"x_max":653,"ha":653,"o":"m 153 307 q 153 153 196 79 q 238 5 327 5 q 415 5 458 80 q 501 154 501 307 q 501 460 458 535 q 415 609 327 609 q 240 609 196 534 q 153 459 153 307 z m 30 307 q 30 447 114 538 q 197 629 326 629 q 455 629 539 538 q 623 446 623 308 q 623 170 538 77 q 452 -16 327 -16 q 200 -16 115 76 q 30 168 30 307 z"},"F":{"x_min":0,"x_max":640,"ha":640,"o":"m 24 -3 l 24 5 q 64 15 78 50 q 92 85 92 225 l 92 558 q 92 598 78 617 q 64 637 35 641 l 35 649 q 61 648 92 648 q 123 648 192 648 l 594 648 l 645 507 l 639 504 q 584 570 509 597 q 434 625 281 625 q 250 625 235 625 q 219 625 206 624 l 206 358 q 214 358 223 357 q 233 357 235 357 q 236 357 248 356 q 259 356 268 356 l 356 356 q 436 356 476 376 q 516 396 536 444 l 543 444 l 543 244 l 536 244 q 519 292 477 312 q 435 333 356 333 l 259 333 q 257 333 240 332 q 222 332 206 331 l 206 225 q 206 90 220 53 q 234 16 275 5 l 275 -3 q 233 -1 201 -1 q 168 0 145 0 q 117 0 87 -1 q 57 -1 24 -3 z"},"`":{"x_min":0,"x_max":500,"ha":500,"o":"m 336 589 l 300 589 l 153 678 q 129 692 121 703 q 112 713 112 727 q 112 743 123 754 q 134 766 149 766 q 161 766 174 758 q 188 750 201 736 z"},"k":{"x_min":0,"x_max":581,"ha":581,"o":"m 9 -3 l 9 5 q 46 17 60 51 q 74 85 74 202 l 74 247 l 74 568 q 74 647 62 665 q 51 682 18 684 l 18 692 q 53 696 92 706 q 131 715 174 729 q 172 696 171 650 q 170 604 170 537 l 170 302 l 294 407 q 337 443 353 462 q 368 481 368 495 q 368 504 362 509 q 355 514 340 518 l 340 524 q 358 523 379 522 q 399 522 441 522 q 491 522 515 522 q 539 523 558 524 l 558 517 q 467 500 351 414 q 344 409 340 406 l 220 317 q 288 316 331 293 q 374 270 422 200 q 432 186 451 157 q 530 38 593 5 l 593 -3 q 574 -2 554 -1 q 535 -1 500 -1 q 477 -1 458 -1 q 438 -2 419 -3 q 403 24 374 74 q 250 287 207 287 q 187 287 178 272 q 170 257 170 219 q 170 94 184 55 q 198 17 237 5 l 237 -3 q 215 -1 190 -1 q 165 0 121 0 q 88 0 62 -1 q 36 -1 9 -3 z"},"u":{"x_min":0,"x_max":646,"ha":646,"o":"m 631 5 l 631 0 l 506 0 q 494 21 485 44 q 477 68 470 96 q 441 42 395 14 q 348 -14 285 -14 q 221 -14 172 6 q 124 27 98 64 q 80 90 73 130 q 65 169 65 257 l 65 287 l 65 385 q 65 442 53 459 q 41 476 8 479 l 8 487 q 38 490 73 499 q 108 507 163 524 q 161 481 160 439 q 159 396 159 354 l 159 289 q 159 125 193 69 q 227 13 311 13 q 388 13 429 79 q 471 145 471 267 l 471 360 q 471 438 460 458 q 449 477 416 479 l 416 487 q 447 491 482 499 q 518 508 570 524 q 568 482 567 438 q 566 393 566 343 l 566 225 q 566 98 580 56 q 594 13 631 5 z"},"]":{"x_min":0,"x_max":319,"ha":319,"o":"m 56 -174 l 56 -157 q 101 -154 117 -131 q 133 -108 133 -28 l 133 521 q 133 602 117 625 q 101 647 56 650 l 56 667 l 60 667 q 146 667 183 634 q 219 601 219 521 l 219 -28 q 219 -107 183 -141 q 146 -174 60 -174 z"},"U":{"x_min":0,"x_max":742,"ha":742,"o":"m 637 359 l 637 370 q 637 528 618 575 q 600 623 551 644 l 551 651 q 562 650 581 649 q 629 647 645 647 q 679 647 748 651 l 751 651 l 751 644 q 701 623 682 571 q 663 518 663 359 l 663 262 q 663 118 593 50 q 522 -19 375 -19 q 217 -19 147 43 q 78 105 78 250 q 78 291 79 345 q 80 399 80 413 l 80 564 q 80 599 67 617 q 54 636 23 644 l 23 652 q 52 650 81 649 q 109 648 137 648 q 165 648 194 649 q 223 650 252 652 l 252 644 q 221 637 208 619 q 194 600 194 564 l 194 344 q 194 263 198 214 q 203 165 212 136 q 231 78 283 46 q 335 13 409 13 q 521 13 579 75 q 637 138 637 257 z"},"o":{"x_min":0,"x_max":655,"ha":655,"o":"m 151 263 q 151 140 197 73 q 244 7 329 7 q 413 7 459 73 q 505 139 505 262 q 505 384 458 450 q 412 516 326 516 q 244 516 198 449 q 151 382 151 263 z m 37 266 q 37 384 118 459 q 200 534 329 534 q 458 534 538 458 q 618 383 618 261 q 618 139 538 63 q 457 -12 325 -12 q 197 -12 117 65 q 37 142 37 266 z"},"N":{"x_min":0,"x_max":744,"ha":744,"o":"m 115 295 l 115 274 q 115 125 134 76 q 152 26 201 4 l 201 -3 q 170 -1 146 -1 q 123 0 107 0 q 81 0 55 -1 q 28 -1 1 -3 l 1 4 q 51 25 70 79 q 89 132 89 295 l 89 516 q 89 579 74 603 q 60 627 22 642 l 22 650 q 34 650 55 649 q 99 648 112 648 q 142 648 161 648 q 181 648 201 649 q 320 501 626 207 l 635 198 l 635 359 q 635 526 616 574 q 598 623 549 644 l 549 651 q 560 650 579 649 q 627 647 643 647 q 677 647 746 651 l 749 651 l 749 644 q 699 623 680 571 q 661 518 661 359 l 661 -19 l 652 -19 q 561 92 425 239 q 290 385 115 562 z"},"+":{"x_min":0,"x_max":833,"ha":833,"o":"m 382 596 l 451 596 l 451 332 l 709 332 l 709 264 l 451 264 l 451 0 l 382 0 l 382 264 l 124 264 l 124 332 l 382 332 z"},"G":{"x_min":0,"x_max":780,"ha":780,"o":"m 711 71 q 656 25 586 2 q 516 -20 428 -20 q 257 -20 150 73 q 43 167 43 317 q 43 477 148 572 q 253 666 430 666 q 508 666 582 646 q 655 625 718 586 l 677 472 l 670 473 q 653 555 592 600 q 531 646 440 646 q 314 646 245 562 q 176 478 176 324 q 176 174 245 88 q 314 2 434 2 q 482 2 520 21 q 558 40 576 72 q 585 88 589 117 q 593 146 593 200 q 593 269 570 291 q 546 314 479 320 l 479 329 q 540 327 570 326 q 600 325 626 325 q 653 325 690 326 q 728 327 773 329 l 773 320 q 735 311 722 295 q 708 279 708 244 l 708 134 q 708 118 709 103 q 709 87 711 71 z"},"q":{"x_min":0,"x_max":656,"ha":656,"o":"m 152 261 q 152 146 198 80 q 245 13 323 13 q 402 13 447 78 q 492 144 492 261 q 492 379 447 445 q 402 511 322 511 q 244 511 198 444 q 152 377 152 261 z m 416 -191 q 460 -181 476 -148 q 492 -115 492 9 l 492 30 l 492 100 q 469 49 417 18 q 366 -12 302 -12 q 188 -12 114 68 q 39 149 39 271 q 39 387 114 461 q 189 535 307 535 q 363 535 408 509 q 453 482 489 428 q 499 454 509 477 q 520 500 532 521 l 579 521 q 581 521 604 522 q 626 522 647 523 l 647 516 q 614 509 602 477 q 590 445 590 323 l 590 -15 q 590 -117 604 -148 q 617 -180 654 -191 l 654 -198 q 632 -197 608 -196 q 584 -196 544 -196 q 490 -196 464 -196 q 438 -197 416 -198 z"},"d":{"x_min":0,"x_max":659,"ha":659,"o":"m 494 404 l 494 565 q 494 644 482 663 q 471 682 438 684 l 438 692 q 467 695 502 704 q 538 712 592 729 q 590 700 590 670 q 589 641 589 597 l 589 547 l 589 225 q 589 99 603 56 q 617 13 653 5 l 653 -2 l 650 -2 q 591 0 562 0 l 529 0 q 517 23 508 46 q 499 69 494 94 q 460 42 411 15 q 362 -12 302 -12 q 189 -12 114 69 q 39 149 39 271 q 39 387 115 461 q 190 535 308 535 q 374 535 424 500 q 473 465 494 404 z m 152 263 q 152 147 198 80 q 245 13 323 13 q 403 13 449 79 q 494 144 494 261 q 494 379 448 445 q 403 511 322 511 q 244 511 198 445 q 152 378 152 263 z"},"1":{"x_min":0,"x_max":653,"ha":653,"o":"m 186 -3 l 186 5 q 235 18 252 52 q 270 85 270 210 l 270 247 l 270 483 q 270 549 256 565 q 242 582 200 585 l 200 593 q 239 596 283 605 q 327 614 381 630 q 379 602 378 555 q 377 509 377 437 l 377 236 q 377 91 394 54 q 412 17 460 5 l 460 -3 q 429 -1 395 -1 q 360 0 323 0 q 296 0 261 -1 q 226 -1 186 -3 z"},"5":{"x_min":0,"x_max":653,"ha":653,"o":"m 28 47 l 69 177 l 75 177 q 94 98 153 52 q 212 6 293 6 q 374 6 423 50 q 471 95 471 169 q 471 247 421 291 q 370 336 282 336 q 239 336 191 326 q 144 315 83 293 l 108 613 l 462 613 q 503 613 524 619 q 545 625 558 638 l 564 637 l 528 530 l 200 530 q 125 530 115 398 q 111 355 109 329 q 166 345 213 352 q 261 360 300 360 q 437 360 516 312 q 596 263 596 181 q 596 90 518 37 q 439 -16 304 -16 q 222 -16 152 0 q 81 16 28 47 z"}}}
